HIERARCHY
ROOT reference
{
  OFFSET 0 0 0
  CHANNELS 6 Xposition Yposition Zposition Zrotation Xrotation Yrotation
  JOINT Hips
  {
    OFFSET 85.8452 77.9423 -175.398
    CHANNELS 6 Xposition Yposition Zposition Zrotation Xrotation Yrotation
    JOINT Spine
    {
      OFFSET 0 7.81434 0
      CHANNELS 6 Xposition Yposition Zposition Zrotation Xrotation Yrotation
      JOINT Spine1
      {
        OFFSET 0 23.3781 0
        CHANNELS 6 Xposition Yposition Zposition Zrotation Xrotation Yrotation
        JOINT Neck
        {
          OFFSET 0 23.2821 2.11656
          CHANNELS 6 Xposition Yposition Zposition Zrotation Xrotation Yrotation
          JOINT Head
          {
            OFFSET 0 13.3416 -1.90594
            CHANNELS 6 Xposition Yposition Zposition Zrotation Xrotation Yrotation
            End Site
            {
              OFFSET 0 23.8242 0
            }
          }
        }
        JOINT LeftShoulder
        {
          OFFSET 3.82472 21.4916 -0.175476
          CHANNELS 6 Xposition Yposition Zposition Zrotation Xrotation Yrotation
          JOINT LeftArm
          {
            OFFSET 10.8239 0 0
            CHANNELS 6 Xposition Yposition Zposition Zrotation Xrotation Yrotation
            JOINT LeftForeArm
            {
              OFFSET 28.5356 0 0
              CHANNELS 6 Xposition Yposition Zposition Zrotation Xrotation Yrotation
              JOINT LeftHand
              {
                OFFSET 24.5315 0 0
                CHANNELS 6 Xposition Yposition Zposition Zrotation Xrotation Yrotation
                End Site
                {
                  OFFSET 14.2945 0 0
                }
              }
            }
          }
        }
        JOINT RightShoulder
        {
          OFFSET -3.77033 21.4916 -0.175476
          CHANNELS 6 Xposition Yposition Zposition Zrotation Xrotation Yrotation
          JOINT RightArm
          {
            OFFSET -10.8239 0 0
            CHANNELS 6 Xposition Yposition Zposition Zrotation Xrotation Yrotation
            JOINT RightForeArm
            {
              OFFSET -28.5356 0 0
              CHANNELS 6 Xposition Yposition Zposition Zrotation Xrotation Yrotation
              JOINT RightHand
              {
                OFFSET -24.5315 0 0
                CHANNELS 6 Xposition Yposition Zposition Zrotation Xrotation Yrotation
                End Site
                {
                  OFFSET -14.2945 0 0
                }
              }
            }
          }
        }
      }
    }
    JOINT LeftUpLeg
    {
      OFFSET 9.52968 0 0
      CHANNELS 6 Xposition Yposition Zposition Zrotation Xrotation Yrotation
      JOINT LeftLeg
      {
        OFFSET 0 -40.1884 0
        CHANNELS 6 Xposition Yposition Zposition Zrotation Xrotation Yrotation
        JOINT LeftFoot
        {
          OFFSET 0 -39.9954 0
          CHANNELS 6 Xposition Yposition Zposition Zrotation Xrotation Yrotation
          JOINT LeftToeBase
          {
            OFFSET 0 -6.19429 14.2945
            CHANNELS 6 Xposition Yposition Zposition Zrotation Xrotation Yrotation
            End Site
            {
              OFFSET 0 0 3.81187
            }
          }
        }
      }
    }
    JOINT RightUpLeg
    {
      OFFSET -9.52968 0 0
      CHANNELS 6 Xposition Yposition Zposition Zrotation Xrotation Yrotation
      JOINT RightLeg
      {
        OFFSET 0 -40.1884 0
        CHANNELS 6 Xposition Yposition Zposition Zrotation Xrotation Yrotation
        JOINT RightFoot
        {
          OFFSET 0 -39.9954 0
          CHANNELS 6 Xposition Yposition Zposition Zrotation Xrotation Yrotation
          JOINT RightToeBase
          {
            OFFSET 0 -6.19429 14.2945
            CHANNELS 6 Xposition Yposition Zposition Zrotation Xrotation Yrotation
            End Site
            {
              OFFSET 0 0 3.81187
            }
          }
        }
      }
    }
  }
}
MOTION
Frames:	9
Frame Time:	0.004
0 0 0 0 0 -0 163.939 78.4312 -132.372 6.6462 2.12954 -144.669 0 7.81434 0 0.978334 -1.98518 -0.446147 -2.84217e-014 23.3781 0 -2.3306 -3.06922 -0.525587 2.84217e-014 23.2821 2.11656 6.75532 17.4134 7.61413 -2.84217e-014 13.3416 -1.90594 -9.17531 1.59719 6.82195 3.82472 21.4916 -0.175476 -16.774 25.1849 15.9586 10.8239 -2.13163e-014 0 -38.1947 31.2674 -23.3848 28.5356 1.42109e-014 0 0.415065 -17.2399 -112.865 24.5315 2.84217e-014 1.42109e-014 -2.6911 -16.5936 -1.95682 -3.77033 21.4916 -0.175476 19.7844 26.0731 -7.65066 -10.8239 -2.84217e-014 0 45.1611 24.0871 12.9299 -28.5356 0 2.84217e-014 3.79553 -10.0777 107.561 -24.5315 0 -7.10543e-015 15.3829 -15.153 -0.053652 9.52968 7.10543e-015 1.42109e-014 -10.4114 -1.02469 -0.816217 0 -40.1884 0 3.90368 24.4846 -6.3303 2.84217e-014 -39.9954 -1.42109e-014 26.1239 -22.2692 18.0228 0 -6.19429 14.2945 -1.10348e-031 -1.98785e-015 -3.18055e-015 -9.52968 7.10543e-015 1.42109e-014 -3.68235 -24.4902 -4.93122 0 -40.1884 0 -11.2895 62.2079 -5.34689 2.84217e-014 -39.9954 0 7.12639 -9.66059 2.22804 2.84217e-014 -6.19429 14.2945 -6.36111e-015 3.18055e-015 6.36111e-015 
0 0 0 0 0 -0 163.635 78.6054 -132.839 6.89884 2.1089 -144.326 0 7.81434 0 1.23181 -2.01988 -0.737943 0 23.3781 -1.42109e-014 -2.71873 -3.36387 -0.839593 0 23.2821 2.11656 7.31398 17.5315 7.80619 0 13.3416 -1.90594 -9.54694 1.80249 7.00594 3.82472 21.4916 -0.175476 -16.4089 25.556 16.1797 10.8239 1.42109e-014 0 -38.3233 31.357 -23.9527 28.5356 0 0 0.355243 -17.3182 -113.187 24.5315 0 1.42109e-014 -2.07742 -16.771 -1.6311 -3.77033 21.4916 -0.175476 20.6488 26.2855 -8.29942 -10.8239 0 -1.42109e-014 44.1135 24.6285 13.2444 -28.5356 0 5.68434e-014 3.90992 -10.5972 107.787 -24.5315 -5.68434e-014 0 15.5071 -15.8463 -0.144535 9.52968 -2.13163e-014 -1.42109e-014 -10.109 -0.392959 -0.777231 -2.84217e-014 -40.1884 0 3.87431 23.5843 -6.30323 0 -39.9954 1.42109e-014 25.339 -22.023 17.6874 -2.84217e-014 -6.19429 14.2945 7.95139e-016 -3.97569e-016 -3.18055e-015 -9.52968 1.42109e-014 0 -3.26865 -24.7995 -4.68163 -5.68434e-014 -40.1884 1.42109e-014 -10.6845 61.0048 -5.93477 2.84217e-014 -39.9954 -1.42109e-014 7.83838 -9.50078 1.86154 2.84217e-014 -6.19429 14.2945 7.95139e-016 3.18055e-015 -0 
0 0 0 0 0 -0 163.327 78.7865 -133.338 7.10074 2.14581 -143.914 0 7.81434 0 1.09102 -1.86863 -0.972713 0 23.3781 -2.84217e-014 -2.24552 -3.75399 -1.06415 -5.68434e-014 23.2821 2.11656 7.26497 17.4546 7.89654 0 13.3416 -1.90594 -9.76609 2.08453 7.09041 3.82472 21.4916 -0.175476 -16.5011 25.7724 16.1952 10.8239 0 2.84217e-014 -38.1727 32.0574 -24.3272 28.5356 -1.42109e-014 0 0.671694 -18.3231 -113.348 24.5315 0 -1.42109e-014 -2.43186 -17.307 -1.96202 -3.77033 21.4916 -0.175476 20.4731 26.2296 -8.74996 -10.8239 0 0 44.0408 24.8776 13.0148 -28.5356 2.84217e-014 0 4.23812 -10.4213 108.05 -24.5315 -2.84217e-014 0 16.0423 -16.1074 0.06897 9.52968 0 0 -9.78327 0.387396 -1.08595 0 -40.1884 -1.42109e-014 3.67621 22.5878 -6.21204 -2.84217e-014 -39.9954 0 25.4139 -21.4742 17.5069 0 -6.19429 14.2945 7.95139e-016 1.19271e-015 6.36111e-015 -9.52968 0 0 -2.67287 -24.916 -4.88855 0 -40.1884 -1.42109e-014 -11.396 59.4471 -6.11941 0 -39.9954 -2.84217e-014 8.12473 -9.22545 2.19725 -2.84217e-014 -6.19429 14.2945 -3.97569e-015 -6.36111e-015 -0 
0 0 0 0 0 -0 163.05 78.9598 -133.772 7.36837 2.03226 -143.701 -5.68434e-014 7.81434 1.42109e-014 1.42244 -2.00147 -1.26826 0 23.3781 -1.42109e-014 -2.80635 -3.92317 -1.38929 0 23.2821 2.11656 7.73442 17.4832 8.17029 0 13.3416 -1.90594 -10.0651 2.21357 7.35779 3.82472 21.4916 -0.175476 -16.0612 25.9514 16.5322 10.8239 0 0 -38.284 32.1898 -24.8068 28.5356 -1.42109e-014 0 0.683642 -18.5074 -113.631 24.5315 0 2.84217e-014 -2.2606 -17.472 -1.96983 -3.77033 21.4916 -0.175476 20.1584 26.0483 -7.97361 -10.8239 2.84217e-014 0 44.912 23.4786 12.0412 -28.5356 2.84217e-014 1.42109e-014 5.05753 -8.26396 108.217 -24.5315 -2.84217e-014 -7.10543e-015 15.2881 -15.2208 -0.746205 9.52968 0 2.84217e-014 -9.52964 0.858865 -0.92543 0 -40.1884 0 3.64393 21.7474 -6.34017 2.84217e-014 -39.9954 0 24.8493 -20.9421 17.0908 0 -6.19429 14.2945 -1.19271e-015 -3.97569e-016 -6.36111e-015 -9.52968 2.13163e-014 0 -2.26801 -25.351 -4.45343 0 -40.1884 0 -10.6021 58.1205 -6.97925 -2.84217e-014 -39.9954 0 8.06284 -8.8894 2.09235 2.84217e-014 -6.19429 14.2945 -2.38542e-015 0 -0 
0 0 0 0 0 -0 162.721 79.1319 -134.248 7.54929 2.05281 -143.239 0 7.81434 -1.42109e-014 1.42767 -1.98866 -1.50906 -2.84217e-014 23.3781 0 -2.65934 -4.3383 -1.63462 -2.84217e-014 23.2821 2.11656 7.8509 18.3768 8.33014 0 13.3416 -1.90594 -10.3709 1.43131 7.48542 3.82472 21.4916 -0.175476 -16.0391 26.3455 16.2392 10.8239 7.10543e-015 -1.42109e-014 -38.4254 32.1541 -24.9246 28.5356 2.84217e-014 0 0.627358 -18.6197 -113.794 24.5315 -2.84217e-014 0 -1.92197 -17.6699 -1.95901 -3.77033 21.4916 -0.175476 20.8335 26.3005 -8.65976 -10.8239 2.84217e-014 1.42109e-014 43.9953 24.1042 12.169 -28.5356 -2.84217e-014 0 5.10463 -9.27153 108.33 -24.5315 2.84217e-014 0 16.0249 -16.1853 -0.016489 9.52968 7.10543e-015 -1.42109e-014 -9.27876 1.56024 -1.09011 0 -40.1884 2.84217e-014 3.52682 20.9103 -6.24098 -2.84217e-014 -39.9954 0 24.1844 -20.4431 16.8725 0 -6.19429 14.2945 -7.95139e-016 1.59028e-015 -0 -9.52968 -7.10543e-015 -1.42109e-014 -1.99636 -25.4398 -4.37805 -2.84217e-014 -40.1884 1.42109e-014 -9.99068 56.7526 -7.53985 2.84217e-014 -39.9954 0 8.37858 -8.79983 2.15605 0 -6.19429 14.2945 1.59028e-015 -3.18055e-015 3.18055e-015 
0 0 0 0 0 -0 162.393 79.319 -134.723 7.77219 2.05786 -142.847 0 7.81434 -1.42109e-014 1.56315 -2.27716 -1.82414 0 23.3781 -1.42109e-014 -2.59864 -4.00238 -1.94604 -5.68434e-014 23.2821 2.11656 7.75043 18.3196 8.65322 -2.84217e-014 13.3416 -1.90594 -10.592 1.206 7.76717 3.82472 21.4916 -0.175476 -15.9916 26.1632 16.2398 10.8239 0 -2.84217e-014 -38.5316 32.1424 -25.0424 28.5356 -1.42109e-014 0 0.35873 -18.4598 -114.215 24.5315 2.84217e-014 0 -1.22306 -17.9111 -1.75385 -3.77033 21.4916 -0.175476 20.6894 26.0568 -8.55106 -10.8239 0 4.26326e-014 44.046 23.9623 11.852 -28.5356 0 2.84217e-014 5.18306 -8.79002 108.57 -24.5315 0 1.06581e-014 15.5659 -15.9335 -0.638197 9.52968 -7.10543e-015 0 -8.9767 2.2039 -1.19589 0 -40.1884 0 3.38563 20.0782 -5.81202 2.84217e-014 -39.9954 0 23.694 -19.9438 16.1884 0 -6.19429 14.2945 -3.97569e-016 7.95139e-016 3.18055e-015 -9.52968 -7.10543e-015 -1.42109e-014 -1.6664 -25.579 -4.1202 5.68434e-014 -40.1884 0 -9.89262 54.7978 -6.28329 2.84217e-014 -39.9954 0 9.04942 -7.84824 1.64196 2.84217e-014 -6.19429 14.2945 -1.59028e-015 1.59028e-015 -3.18055e-015 
0 0 0 0 0 -0 162.077 79.5022 -135.205 7.95718 2.11079 -142.445 2.84217e-014 7.81434 1.42109e-014 1.24957 -2.49509 -2.00847 0 23.3781 1.42109e-014 -1.5811 -3.72593 -2.08711 5.68434e-014 23.2821 2.11656 7.07135 17.5758 8.55188 -2.84217e-014 13.3416 -1.90594 -10.4941 2.25175 7.70536 3.82472 21.4916 -0.175476 -16.4317 25.906 15.6966 10.8239 0 -2.84217e-014 -38.3514 32.7097 -24.9136 28.5356 -1.42109e-014 0 0.638407 -19.4091 -114.301 24.5315 0 0 -1.32717 -18.4491 -1.88064 -3.77033 21.4916 -0.175476 20.1495 25.8426 -8.76918 -10.8239 2.84217e-014 -2.84217e-014 44.1793 22.9989 11.6302 -28.5356 0 1.42109e-014 5.91978 -7.33823 108.665 -24.5315 0 0 15.77 -15.5497 -0.781709 9.52968 -1.42109e-014 0 -8.62942 2.84193 -1.19062 -2.84217e-014 -40.1884 0 3.22281 19.4094 -5.80444 0 -39.9954 0 22.9467 -19.4395 15.877 0 -6.19429 14.2945 7.95139e-016 -7.95139e-016 -6.36111e-015 -9.52968 -7.10543e-015 -1.42109e-014 -1.34495 -25.6156 -3.88974 0 -40.1884 0 -8.81276 53.8407 -7.44829 -2.84217e-014 -39.9954 0 8.37965 -8.55099 1.05194 0 -6.19429 14.2945 3.18055e-015 0 3.18055e-015 
0 0 0 0 0 -0 161.726 79.7031 -135.688 8.04661 2.22893 -141.955 0 7.81434 0 1.63756 -2.28767 -2.42746 0 23.3781 0 -2.37471 -4.11729 -2.54552 -2.84217e-014 23.2821 2.11656 7.95219 18.0735 8.64449 2.84217e-014 13.3416 -1.90594 -11.2708 1.82675 7.71411 3.82472 21.4916 -0.175476 -15.8341 26.1392 16.0169 10.8239 0 1.42109e-014 -38.6537 32.7262 -25.1749 28.5356 0 0 0.485331 -19.1965 -114.66 24.5315 -2.84217e-014 1.42109e-014 -1.03817 -18.4605 -1.81284 -3.77033 21.4916 -0.175476 20.6498 25.9798 -8.611 -10.8239 0 -1.42109e-014 43.9503 23.3883 11.2511 -28.5356 2.84217e-014 1.42109e-014 6.50518 -6.88313 109.037 -24.5315 2.84217e-014 -7.10543e-015 11.859 -16.0373 -1.80875 9.52968 0 0 -8.34235 3.58935 -1.27615 0 -40.1884 1.42109e-014 3.0982 18.7142 -5.8434 0 -39.9954 0 22.2751 -18.736 15.5337 0 -6.19429 14.2945 7.95139e-016 -1.59028e-015 -3.18055e-015 -9.52968 0 1.42109e-014 -1.10591 -25.471 -3.77127 2.84217e-014 -40.1884 0 -8.53549 52.2281 -7.50454 0 -39.9954 -1.42109e-014 8.78568 -8.20797 1.1804 -2.84217e-014 -6.19429 14.2945 0 1.59028e-015 -0 
0 0 0 0 0 -0 161.355 79.9026 -136.15 8.14857 2.25645 -141.569 5.68434e-014 7.81434 1.42109e-014 1.66639 -2.33597 -2.69458 0 23.3781 0 -2.24274 -4.12683 -2.80934 -2.84217e-014 23.2821 2.11656 7.76316 18.865 9.10057 2.84217e-014 13.3416 -1.90594 -11.4707 0.457636 8.08541 3.82472 21.4916 -0.175476 -15.9156 26.3494 16.0233 10.8239 0 -2.84217e-014 -38.5161 32.8511 -25.5171 28.5356 1.42109e-014 1.42109e-014 0.578128 -19.6368 -114.827 24.5315 0 1.42109e-014 -1.18358 -18.7612 -1.78035 -3.77033 21.4916 -0.175476 20.5746 25.9116 -8.63318 -10.8239 -2.84217e-014 2.84217e-014 43.9269 23.3519 10.959 -28.5356 0 1.42109e-014 6.89728 -6.8882 109.196 -24.5315 -2.84217e-014 0 11.9101 -16.5822 -1.59372 9.52968 1.42109e-014 1.42109e-014 -8.15515 4.22582 -1.19044 -2.84217e-014 -40.1884 -1.42109e-014 3.02567 18.0198 -5.62578 5.68434e-014 -39.9954 0 21.598 -17.9922 14.9104 2.84217e-014 -6.19429 14.2945 -0 0 6.36111e-015 -9.52968 1.42109e-014 1.42109e-014 -0.915559 -25.4183 -3.59089 0 -40.1884 -1.42109e-014 -7.97214 50.7695 -8.09762 2.84217e-014 -39.9954 1.42109e-014 9.26172 -8.05774 0.948311 -2.84217e-014 -6.19429 14.2945 -7.95139e-016 0 -0 
